<?xml version="1.0" encoding="utf-8"?>
<!-- Generator: Adobe Illustrator 23.0.2, SVG Export Plug-In . SVG Version: 6.00 Build 0)  -->
<svg version="1.1" id="圖層_1" xmlns="http://www.w3.org/2000/svg" xmlns:xlink="http://www.w3.org/1999/xlink" x="0px" y="0px"
	 viewBox="0 0 213 212" style="enable-background:new 0 0 213 212;" xml:space="preserve">
<style type="text/css">
	.st0{fill:#F39800;}
	.st1{fill:#231815;}
</style>
<g>
	<path class="st0" d="M7.6,81.7c0,0,44.1,25.9,50.2,77.6c39.6,13.7,48.7,30.4,48.7,30.4h1.5c0,0,13.7-19.8,48.7-30.4
		c7.6-54.8,48.7-76.1,48.7-76.1v-4.6c0,0-13.7-39.6-45.6-59.3c-1.5,0-1.5,0-3,0c-38,27.4-77.6,16.7-98.9,0h-1.5
		C19.8,40.6,7.6,81.7,7.6,81.7z"/>
	<path class="st1" d="M53.3,13.2c3,0,1.5,0,4.6,0c13.7,15.2,62.4,31.9,100.4,0c1.5,0,1.5,0,3,0C196.3,33,213,78.6,213,78.6v4.6
		c0,0-44.1,19.8-51.7,80.6c-38,12.2-53.3,35-53.3,35h-1.5c0,0-10.6-19.8-53.3-35C45.6,107.5,0,83.2,0,83.2S13.7,36,53.3,13.2z
		 M7.6,81.7c0,0,44.1,25.9,50.2,77.6c39.6,13.7,48.7,30.4,48.7,30.4h1.5c0,0,13.7-19.8,48.7-30.4c7.6-54.8,48.7-76.1,48.7-76.1v-4.6
		c0,0-13.7-39.6-45.6-59.3c-1.5,0-1.5,0-3,0c-38,27.4-77.6,16.7-98.9,0h-1.5C19.8,40.6,7.6,81.7,7.6,81.7z"/>
	<path class="st1" d="M35,58.8c4.6-12.2,7.6-19.8,7.6-7.6c0,24.3,31.9,30.4,38,30.4c1.5,1.5,6.1,12.2,6.1,12.2l12.2,24.3h15.2
		c0,0,16.7-35,18.3-38c3,0,36.5-4.6,38-30.4c1.5-15.2,6.1,0,7.6,10.6c3,24.3-24.3,35-35,38c-4.6,7.6-24.3,48.7-24.3,48.7H97.4
		c0,0-22.8-42.6-27.4-48.7C53.3,95.3,28.9,78.6,35,58.8z"/>
	<path class="st1" d="M147.6,180.6h9.1c0,0,1.5,0,1.5,1.5v3c0,0,0,1.5-1.5,1.5h-7.6v3c0,0,0,0-1.5,0h-1.5v-7.6
		C146.1,180.6,146.1,180.6,147.6,180.6z M149.1,182.1L149.1,182.1l6.1,1.5v-1.5H149.1z"/>
	<path class="st1" d="M158.2,189.7v-4.6c0,0,0,0,0-1.5c0,0,0,0,1.5,0h9.1c1.5,0,1.5,1.5,1.5,1.5v1.5l-1.5,1.5c0,0,0,0-1.5,0v-1.5
		h-7.6v4.6C159.8,189.7,159.8,189.7,158.2,189.7L158.2,189.7z"/>
	<path class="st1" d="M179.5,183.6C179.5,183.6,181,183.6,179.5,183.6c1.5,1.5,1.5,1.5,1.5,1.5v6.1v1.5c0,0,0,0-1.5,1.5h-7.6
		c0,0,0,0-1.5,0c0,0,0,0,0-1.5v-6.1v-1.5l1.5-1.5L179.5,183.6z M171.9,186.6v4.6h6.1v-4.6H171.9z"/>
</g>
</svg>
